<svg width="400" height="120" viewBox="0 0 400 120" fill="none" xmlns="http://www.w3.org/2000/svg">
  <!-- White version for dark backgrounds -->
  <!-- Logo icon -->
  <g transform="translate(20, 36)">
    <!-- Triangular A background -->
    <path d="M24 4L42 44H32L29 36H19L16 44H6L24 4Z" fill="#FFFFFF" opacity="0.95"/>
    <!-- Inner swoosh wave element -->
    <path d="M24 12C24 12 20 22 18 28C16 34 16 38 20 40C24 42 28 40 30 36C32 32 32 28 30 24C28 20 24 12 24 12Z"
          fill="#007AFF" opacity="0.9"/>
    <!-- Triangle outline -->
    <path d="M24 4L42 44H32L29 36H19L16 44H6L24 4Z" stroke="#B0C4DE" stroke-width="0.5" fill="none" opacity="0.4"/>
  </g>

  <!-- Text: ALDRIDGE -->
  <text x="100" y="58" font-family="system-ui, -apple-system, sans-serif" font-size="28" font-weight="600" fill="#FFFFFF" letter-spacing="2">ALDRIDGE</text>

  <!-- Separator line -->
  <line x1="100" y1="68" x2="280" y2="68" stroke="#007AFF" stroke-width="1" opacity="0.6"/>

  <!-- Text: CONSULTING -->
  <text x="100" y="88" font-family="system-ui, -apple-system, sans-serif" font-size="16" font-weight="400" fill="#B0C4DE" letter-spacing="4">CONSULTING</text>
</svg>
